Genre:Thriller/Drama 
Language:Thai
IMDb:http://www.imdb.com/title/tt1276963/
Source:DVD
Subtitles:English/Soft
General
Complete name :The.Shadow.of.Naka.2010.DVDRip.XviD.FEEL-FREE
Format : AVI
Format/Info : Audio Video Interleave
File size : 889 MiB
Duration : 1h 32mn
Overall bit rate : 1 340 Kbps
Video
Format : xvid
Codec ID : xvid
Duration : 1h 32mn
Bit rate : 1 199 Kbps
Width : 652 pixels
Height : 352 pixels
Display aspect ratio : 1.852
Frame rate : 25.000 fps
Resolution : 24 bits
Bits/(Pixel*Frame) : 0.209
Stream size : 796 MiB (89%)
Audio #1
ID : 1
Format : MPEG Audio
Format version : Version 1
Format profile : Layer 3
Codec ID : 55
Codec ID/Hint : MP3
Duration : 1h 32mn
Bit rate mode : Constant
Bit rate : 128 Kbps
Channel(s) : 2 channels
Sampling rate : 48.0 KHz
Resolution : 16 bits
Stream size : 84.9 MiB (10%)
Alignment : Aligned on interleaves
Interleave, duration : 24 ms (0.60 video frame)
Interleave, preload duration : 24 ms
Plot:
Three criminals disguise themselves as Buddhist monks in order to recover a treasure buried underneath a temple
...................................................
Screenshots:
 
http://postimg.com/image/20000/19301.jpg
 
http://postimg.com/image/20000/19302.jpg